<svg width="302" height="302" viewBox="0 0 302 302" fill="none" xmlns="http://www.w3.org/2000/svg">
<rect width="302" height="302" fill="#100447"/>
<path fill-rule="evenodd" clip-rule="evenodd" d="M277.22 151C277.22 220.709 220.709 277.22 151 277.22C81.2909 277.22 24.7805 220.709 24.7805 151C24.7805 81.2909 81.2909 24.7805 151 24.7805C220.709 24.7805 277.22 81.2909 277.22 151ZM266 151C266 214.513 214.513 266 151 266C87.4873 266 36 214.513 36 151C36 87.4873 87.4873 36 151 36C214.513 36 266 87.4873 266 151Z" fill="white"/>
<path fill-rule="evenodd" clip-rule="evenodd" d="M78.0851 104.511V133.557H105.526V205.319H137.083V133.557H152.861V205.319H183.389V176.77H224.894V148.407H183.732V134.241H224.894V104.511H78.0851Z" fill="white"/>
</svg>
